<svg width="28" height="29" viewBox="0 0 28 29" fill="none" xmlns="http://www.w3.org/2000/svg">
<g clip-path="url(#clip0_725_6)">
<path d="M21.0035 14.4683H17.4825C17.8197 12.1618 20.8682 12.4675 21.0035 14.4683ZM9.63783 15.2465H7V17.5915H9.59933C11.9747 17.5915 11.8288 15.2465 9.63783 15.2465ZM9.5445 10.5798H7V12.9132H9.78717C11.739 12.9132 12.0482 10.5798 9.5445 10.5798ZM28 0.079834V28.0798H0V0.079834H28ZM16.3333 9.41317H22.1667V8.2465H16.3333V9.41317ZM12.1893 13.6342C14.4142 12.4978 14.3325 8.32583 10.0742 8.26283H4.66667V19.9038H9.69617C14.9718 19.9038 14.882 14.6142 12.1893 13.6342ZM23.2575 14.3365C22.9378 12.2797 21.4737 10.8948 19.0773 10.8948C16.6332 10.8948 15.1667 12.4582 15.1667 15.4997C15.1667 18.5692 16.7627 19.9132 19.1532 19.9132C21.5425 19.9132 22.7768 18.589 23.1198 17.5798H20.6558C19.796 18.5773 17.2807 18.1877 17.4277 16.0013H23.3298C23.3415 15.2617 23.317 14.7308 23.2575 14.3365Z" fill="#F9F9F9"/>
</g>
<defs>
<clipPath id="clip0_725_6">
<rect width="28" height="28" fill="white" transform="translate(0 0.079834)"/>
</clipPath>
</defs>
</svg>
