<svg width="28" height="29" viewBox="0 0 28 29" fill="none" xmlns="http://www.w3.org/2000/svg">
<g clip-path="url(#clip0_721_47)">
<mask id="mask0_721_47" style="mask-type:luminance" maskUnits="userSpaceOnUse" x="0" y="0" width="28" height="29">
<path d="M28 0.079834H0V28.0798H28V0.079834Z" fill="white"/>
</mask>
<g mask="url(#mask0_721_47)">
<path d="M14 0.079834C6.265 0.079834 0 6.34483 0 14.0798C0 20.2748 4.0075 25.5073 9.5725 27.3623C10.2725 27.4848 10.535 27.0648 10.535 26.6973C10.535 26.3648 10.5175 25.2623 10.5175 24.0898C7 24.7373 6.09 23.2323 5.81 22.4448C5.6525 22.0423 4.97 20.7998 4.375 20.4673C3.885 20.2048 3.185 19.5573 4.3575 19.5398C5.46 19.5223 6.2475 20.5548 6.51 20.9748C7.77 23.0923 9.7825 22.4973 10.5875 22.1298C10.71 21.2198 11.0775 20.6073 11.48 20.2573C8.365 19.9073 5.11 18.6998 5.11 13.3448C5.11 11.8223 5.6525 10.5623 6.545 9.58233C6.405 9.23233 5.915 7.79733 6.685 5.87233C6.685 5.87233 7.8575 5.50483 10.535 7.30733C11.655 6.99233 12.845 6.83483 14.035 6.83483C15.225 6.83483 16.415 6.99233 17.535 7.30733C20.2125 5.48733 21.385 5.87233 21.385 5.87233C22.155 7.79733 21.665 9.23233 21.525 9.58233C22.4175 10.5623 22.96 11.8048 22.96 13.3448C22.96 18.7173 19.6875 19.9073 16.5725 20.2573C17.08 20.6948 17.5175 21.5348 17.5175 22.8473C17.5175 24.7198 17.5 26.2248 17.5 26.6973C17.5 27.0648 17.7625 27.5023 18.4625 27.3623C21.2419 26.4243 23.6571 24.6382 25.3681 22.2554C27.079 19.8726 27.9995 17.0133 28 14.0798C28 6.34483 21.735 0.079834 14 0.079834Z" fill="#F9F9F9"/>
</g>
</g>
<defs>
<clipPath id="clip0_721_47">
<rect width="28" height="28" fill="white" transform="translate(0 0.079834)"/>
</clipPath>
</defs>
</svg>
