<svg width="32" height="32" viewBox="0 0 32 32" fill="none" xmlns="http://www.w3.org/2000/svg">
<path d="M22.003 16.333H18.985C19.274 14.356 21.887 14.618 22.003 16.333ZM12.261 17H10V19.01H12.228C14.264 19.01 14.139 17 12.261 17ZM12.181 13H10V15H12.389C14.062 15 14.327 13 12.181 13ZM28 4V28H4V4H28ZM18 12H23V11H18V12ZM14.448 15.618C16.355 14.644 16.285 11.068 12.635 11.014H8V20.992H12.311C16.833 20.992 16.756 16.458 14.448 15.618ZM23.935 16.22C23.661 14.457 22.406 13.27 20.352 13.27C18.257 13.27 17 14.61 17 17.217C17 19.848 18.368 21 20.417 21C22.465 21 23.523 19.865 23.817 19H21.705C20.968 19.855 18.812 19.521 18.938 17.647H23.997C24.007 17.013 23.986 16.558 23.935 16.22Z" fill="white"/>
</svg>
