<svg width="32" height="32" viewBox="0 0 32 32" fill="none" xmlns="http://www.w3.org/2000/svg">
<path d="M16.3035 4C9.50583 4 4 9.50583 4 16.3035C4 21.7478 7.52188 26.3463 12.4125 27.9765C13.0277 28.0842 13.2584 27.715 13.2584 27.3921C13.2584 27.0999 13.243 26.131 13.243 25.1005C10.1518 25.6696 9.35203 24.347 9.10596 23.6549C8.96755 23.3012 8.36775 22.2092 7.84485 21.917C7.41423 21.6863 6.79905 21.1173 7.82947 21.1019C8.79837 21.0865 9.49045 21.9939 9.72114 22.363C10.8285 24.2239 12.5971 23.701 13.3045 23.3781C13.4122 22.5783 13.7352 22.04 14.0889 21.7325C11.3514 21.4249 8.49079 20.3637 8.49079 15.6576C8.49079 14.3196 8.96755 13.2123 9.7519 12.351C9.62886 12.0434 9.19824 10.7823 9.87493 9.09058C9.87493 9.09058 10.9054 8.76762 13.2584 10.3517C14.2427 10.0749 15.2885 9.93645 16.3343 9.93645C17.3801 9.93645 18.4259 10.0749 19.4102 10.3517C21.7632 8.75224 22.7936 9.09058 22.7936 9.09058C23.4703 10.7823 23.0397 12.0434 22.9167 12.351C23.701 13.2123 24.1778 14.3042 24.1778 15.6576C24.1778 20.3791 21.3018 21.4249 18.5643 21.7325C19.0103 22.1169 19.3948 22.8552 19.3948 24.0086C19.3948 25.6542 19.3794 26.9768 19.3794 27.3921C19.3794 27.715 19.6101 28.0995 20.2253 27.9765C22.6679 27.1522 24.7904 25.5825 26.2941 23.4884C27.7976 21.3943 28.6066 18.8815 28.607 16.3035C28.607 9.50583 23.1012 4 16.3035 4Z" fill="white"/>
</svg>
