<svg width="28" height="29" viewBox="0 0 28 29" fill="none" xmlns="http://www.w3.org/2000/svg">
<g clip-path="url(#clip0_721_59)">
<mask id="mask0_721_59" style="mask-type:luminance" maskUnits="userSpaceOnUse" x="0" y="0" width="28" height="29">
<path d="M28 0.079834H0V28.0798H28V0.079834Z" fill="white"/>
</mask>
<g mask="url(#mask0_721_59)">
<path d="M0 2.08533C0 0.977584 0.9205 0.079834 2.05625 0.079834H25.9438C27.0795 0.079834 28 0.977584 28 2.08533V26.0743C28 27.1821 27.0795 28.0798 25.9438 28.0798H2.05625C0.9205 28.0798 0 27.1821 0 26.0743V2.08533ZM8.65025 23.5193V10.8756H4.4485V23.5193H8.65025ZM6.55025 9.14833C8.015 9.14833 8.92675 8.17883 8.92675 6.96433C8.9005 5.72358 8.01675 4.78033 6.57825 4.78033C5.13975 4.78033 4.2 5.72533 4.2 6.96433C4.2 8.17883 5.11175 9.14833 6.52225 9.14833H6.55025ZM15.1392 23.5193V16.4581C15.1392 16.0801 15.1672 15.7021 15.2793 15.4326C15.582 14.6783 16.2733 13.8961 17.4353 13.8961C18.956 13.8961 19.5632 15.0546 19.5632 16.7556V23.5193H23.765V16.2673C23.765 12.3823 21.693 10.5763 18.928 10.5763C16.6985 10.5763 15.6993 11.8013 15.1392 12.6641V12.7078H15.1112C15.1205 12.6932 15.1299 12.6786 15.1392 12.6641V10.8756H10.9392C10.9917 12.0621 10.9392 23.5193 10.9392 23.5193H15.1392Z" fill="#F9F9F9"/>
</g>
</g>
<defs>
<clipPath id="clip0_721_59">
<rect width="28" height="28" fill="white" transform="translate(0 0.079834)"/>
</clipPath>
</defs>
</svg>
