<svg width="56" height="56" viewBox="0 0 56 56" fill="none" xmlns="http://www.w3.org/2000/svg">
<path fill-rule="evenodd" clip-rule="evenodd" d="M35.3958 27.6529C35.3524 27.9311 35.2466 28.1959 35.0863 28.4275C34.926 28.659 34.7154 28.8512 34.4703 28.9898C33.9766 29.3086 33.5447 29.468 33.1077 29.6274C32.177 29.9488 31.1974 30.2702 30.1613 30.643C29.0687 31.0157 28.0891 31.3885 27.215 31.6585C26.1249 32.0313 25.0888 32.3526 24.1041 32.7254C23.3633 33.0425 22.6674 33.4556 22.0345 33.9544C21.4458 34.4877 20.9321 35.0983 20.5073 35.7695C20.0703 36.515 19.7952 37.4766 19.7952 38.5975C19.7952 40.842 20.3402 42.5491 21.4329 43.6161C22.523 44.7396 24.5438 45.2718 27.5389 45.2718C30.5933 45.2718 32.6655 44.6856 33.7607 43.5107C34.8482 42.3357 35.3932 40.6826 35.3932 38.5487V27.6529H35.3958ZM27.5415 4C32.8891 4 36.815 5.01553 39.3217 7.09802C41.831 9.12908 43.0856 11.7412 43.0856 14.8366V41.2148C43.0856 42.2817 42.8696 43.4567 42.4891 44.737C42.1035 46.0225 41.3425 47.1949 40.1418 48.2592C38.9977 49.3313 37.4166 50.2389 35.3984 50.933C33.3802 51.6272 30.7629 52 27.5441 52C24.3304 52 21.708 51.6272 19.6923 50.933C17.6767 50.2389 16.093 49.3313 14.9489 48.2592C13.8846 47.3001 13.0783 46.089 12.6042 44.737C12.2185 43.4592 12 42.2843 12 41.2174V37.001C12 34.7565 12.599 32.674 13.7997 30.8563C15.0003 28.9898 16.6894 27.7095 18.8722 26.9073C19.9623 26.5345 21.2169 26.1618 22.6335 25.681C24.0527 25.1976 25.3588 24.7169 26.6699 24.2927C27.9811 23.8633 29.1252 23.434 30.1048 23.0586C30.6959 22.8221 31.2963 22.6094 31.9044 22.421L32.8866 21.9402C33.2722 21.7268 33.6501 21.4055 34.0332 20.9787C34.4137 20.5545 34.7402 20.0737 35.0153 19.5389C35.306 18.9599 35.4557 18.3203 35.4524 17.6724V15.9627C35.4564 15.3361 35.3249 14.716 35.0667 14.145C34.8508 13.5023 34.4137 12.9161 33.8147 12.3839C33.2156 11.8492 32.3955 11.4224 31.416 11.0985C30.4338 10.7822 29.1278 10.6203 27.6521 10.6203C24.5977 10.6203 22.5795 11.2116 21.4894 12.4354C20.5639 13.5049 20.0189 14.8392 19.9109 16.3329C19.9109 16.6543 19.6383 16.8677 19.3093 16.8677L12.6582 16.9757C12.5002 16.9764 12.3483 16.9146 12.2356 16.8039C12.123 16.6931 12.0586 16.5423 12.0566 16.3844V14.8418C12.0566 13.3429 12.3317 11.9546 12.9307 10.6203C13.5323 9.28334 14.4604 8.16497 15.7125 7.20086C16.9671 6.24189 18.6048 5.44231 20.5665 4.90755C22.4767 4.26481 24.8214 4 27.5466 4H27.5415Z" fill="white"/>
</svg>
