<svg viewBox="0 0 32 32" fill="none" xmlns="http://www.w3.org/2000/svg">
<path fill-rule="evenodd" clip-rule="evenodd" d="M19.6979 15.8265C19.6762 15.9656 19.6233 16.0979 19.5432 16.2137C19.463 16.3295 19.3577 16.4256 19.2351 16.4949C18.9883 16.6543 18.7723 16.734 18.5538 16.8137C18.0885 16.9744 17.5987 17.1351 17.0807 17.3215C16.5344 17.5078 16.0446 17.6943 15.6075 17.8293C15.0625 18.0157 14.5444 18.1763 14.052 18.3627C13.6816 18.5213 13.3337 18.7278 13.0173 18.9772C12.7229 19.2438 12.4661 19.5492 12.2537 19.8848C12.0352 20.2575 11.8976 20.7383 11.8976 21.2987C11.8976 22.421 12.1701 23.2746 12.7164 23.8081C13.2615 24.3698 14.2719 24.6359 15.7694 24.6359C17.2966 24.6359 18.3327 24.3428 18.8803 23.7554C19.4241 23.1679 19.6966 22.3413 19.6966 21.2743V15.8265H19.6979ZM15.7708 4C18.4446 4 20.4075 4.50777 21.6609 5.54901C22.9155 6.56454 23.5428 7.8706 23.5428 9.4183V22.6074C23.5428 23.1409 23.4348 23.7283 23.2445 24.3685C23.0517 25.0112 22.6712 25.5975 22.0709 26.1296C21.4988 26.6657 20.7083 27.1194 19.6992 27.4665C18.6901 27.8136 17.3815 28 15.7721 28C14.1652 28 12.854 27.8136 11.8461 27.4665C10.8383 27.1194 10.0465 26.6657 9.47445 26.1296C8.9423 25.6501 8.53915 25.0445 8.3021 24.3685C8.10925 23.7296 8 23.1421 8 22.6087V20.5005C8 19.3782 8.2995 18.337 8.89985 17.4282C9.50015 16.4949 10.3447 15.8548 11.4361 15.4537C11.9812 15.2673 12.6084 15.0809 13.3167 14.8405C14.0263 14.5988 14.6794 14.3584 15.3349 14.1463C15.9905 13.9316 16.5626 13.717 17.0524 13.5293C17.348 13.411 17.6481 13.3047 17.9522 13.2105L18.4433 12.9701C18.6361 12.8634 18.8251 12.7028 19.0166 12.4894C19.2069 12.2773 19.3701 12.0369 19.5076 11.7695C19.653 11.48 19.7279 11.1602 19.7262 10.8362V9.98135C19.7282 9.66805 19.6625 9.358 19.5334 9.0725C19.4254 8.75115 19.2068 8.45806 18.9073 8.19197C18.6078 7.92459 18.1978 7.7112 17.708 7.54923C17.2169 7.39111 16.5639 7.31013 15.826 7.31013C14.2988 7.31013 13.2897 7.60579 12.7447 8.21768C12.2819 8.75244 12.0095 9.4196 11.9555 10.1665C11.9555 10.3272 11.8191 10.4338 11.6546 10.4338L8.3291 10.4879C8.2501 10.4882 8.17415 10.4573 8.1178 10.4019C8.0615 10.3465 8.0293 10.2712 8.0283 10.1922V9.4209C8.0283 8.67145 8.16585 7.97729 8.46535 7.31013C8.76615 6.64167 9.2302 6.08249 9.85625 5.60043C10.4836 5.12095 11.3024 4.72115 12.2833 4.45378C13.2384 4.13241 14.4107 4 15.7733 4H15.7708Z" fill="white"/>
</svg>
