<svg width="100" height="100" viewBox="0 0 100 100" fill="none" xmlns="http://www.w3.org/2000/svg">
<circle cx="50" cy="50" r="50" fill="white"/>
<path fill-rule="evenodd" clip-rule="evenodd" d="M57.3958 49.8496C57.3524 50.1183 57.2466 50.3741 57.0863 50.5978C56.926 50.8214 56.7154 51.0072 56.4703 51.141C55.9766 51.449 55.5447 51.603 55.1077 51.757C54.177 52.0674 53.1974 52.3779 52.1613 52.738C51.0687 53.0982 50.0891 53.4583 49.215 53.7191C48.1249 54.0792 47.0888 54.3897 46.1041 54.7498C45.3633 55.056 44.6674 55.4552 44.0345 55.937C43.4458 56.4522 42.9321 57.042 42.5073 57.6904C42.0703 58.4107 41.7952 59.3396 41.7952 60.4224C41.7952 62.5907 42.3402 64.2398 43.4329 65.2705C44.523 66.3559 46.5438 66.87 49.5389 66.87C52.5932 66.87 54.6654 66.3037 55.7607 65.1687C56.8482 64.0337 57.3932 62.4367 57.3932 60.3752V49.8496H57.3958ZM49.5415 27C54.8891 27 58.815 27.981 61.3217 29.9928C63.831 31.9549 65.0856 34.4783 65.0856 37.4686V62.9508C65.0856 63.9815 64.8696 65.1165 64.4891 66.3534C64.1035 67.5952 63.3425 68.7278 62.1418 69.756C60.9977 70.7917 59.4166 71.6684 57.3984 72.339C55.3802 73.0096 52.7629 73.3697 49.5441 73.3697C46.3304 73.3697 43.708 73.0096 41.6923 72.339C39.6767 71.6684 38.093 70.7917 36.9489 69.756C35.8846 68.8294 35.0783 67.6594 34.6042 66.3534C34.2185 65.119 34 63.984 34 62.9533V58.8801C34 56.7119 34.599 54.7001 35.7997 52.9442C37.0003 51.141 38.6895 49.9042 40.8722 49.1293C41.9623 48.7692 43.2169 48.409 44.6335 47.9446C46.0527 47.4777 47.3588 47.0132 48.6699 46.6034C49.9811 46.1887 51.1252 45.7739 52.1048 45.4113C52.6959 45.1828 53.2963 44.9773 53.9044 44.7953L54.8866 44.3309C55.2722 44.1247 55.6501 43.8143 56.0332 43.402C56.4137 42.9922 56.7402 42.5278 57.0153 42.0112C57.306 41.4518 57.4557 40.8339 57.4524 40.208V38.5564C57.4564 37.9511 57.3249 37.3521 57.0667 36.8005C56.8508 36.1796 56.4137 35.6133 55.8147 35.0992C55.2156 34.5826 54.3955 34.1703 53.416 33.8573C52.4338 33.5519 51.1278 33.3954 49.6521 33.3954C46.5977 33.3954 44.5795 33.9666 43.4895 35.1488C42.5639 36.182 42.0189 37.4711 41.9109 38.9141C41.9109 39.2245 41.6384 39.4307 41.3093 39.4307L34.6582 39.535C34.5002 39.5356 34.3483 39.476 34.2356 39.369C34.123 39.262 34.0586 39.1163 34.0566 38.9637V37.4735C34.0566 36.0256 34.3317 34.6844 34.9307 33.3954C35.5323 32.1039 36.4604 31.0235 37.7125 30.0921C38.9671 29.1657 40.6048 28.3933 42.5665 27.8767C44.4767 27.2558 46.8214 27 49.5466 27H49.5415Z" fill="#0A3871"/>
</svg>
